# xmcd CD database file
#
# Track frame offsets:
#	150
#	14433
#	33823
#	49742
#	77959
#	99174
#	118775
#	138519
#	153443
#	169682
#	192710
#	209844
#	221826
#	248531
#
# Disc length: 3506 seconds
#
# Revision: 0
# Processed by: cddbd v1.5.2PL0 Copyright (c) Steve Scherf et al.
# Submitted via: CDex 1.51
#
DISCID=c60db00e
DTITLE=Anna Nygren - In a Sentimental Mood
DYEAR=2007
DGENRE=Jazz
TTITLE0=For sentimental reasons
TTITLE1=A night in Tunisia
TTITLE2=Crazy
TTITLE3='Round midnight
TTITLE4=I wanna be with you
TTITLE5=Do nothing till you hear from me
TTITLE6=Caravan
TTITLE7=Who is painting the rainbow
TTITLE8=Just wanna say I'm sorry
TTITLE9=In a sentimental mood
TTITLE10=How insensitive
TTITLE11=I wanna be loved by you
TTITLE12=My one and only love
TTITLE13=Ack Värmeland du sköna
EXTD=YEAR: 2007
EXTT0=
EXTT1=
EXTT2=
EXTT3=
EXTT4=
EXTT5=
EXTT6=
EXTT7=
EXTT8=
EXTT9=
EXTT10=
EXTT11=
EXTT12=
EXTT13=
PLAYORDER=
